<?xml version="1.0" encoding="utf-8"?>
<!-- Generator: Adobe Illustrator 21.1.0, SVG Export Plug-In . SVG Version: 6.00 Build 0)  -->
<svg version="1.1" id="Layer_1" xmlns="http://www.w3.org/2000/svg" xmlns:xlink="http://www.w3.org/1999/xlink" x="0px" y="0px"
	 viewBox="0 0 24 24" style="enable-background:new 0 0 24 24;" xml:space="preserve">
<g>
	<path d="M12,24C5.4,24,0,18.6,0,12S5.4,0,12,0h0.4L24,11.6l0,0.4C24,18.6,18.6,24,12,24z M10.9,2.1C5.8,2.6,2,6.9,2,12
		c0,5.5,4.5,10,10,10c5.1,0,9.4-3.8,9.9-8.9c-0.2,0-0.4,0-0.5,0c-3.4,0-6-0.9-7.8-2.6C11.7,8.6,10.8,5.8,10.9,2.1z M13,3.4
		c0.1,2.5,0.8,4.3,2,5.6c1.2,1.2,3.1,1.9,5.6,2L13,3.4z"/>
	<g>
		<path d="M10.2,12.3c-0.5,0.3-1.1,0.1-1.4-0.4c-0.3-0.5-0.9-0.7-1.4-0.4c-0.5,0.3-0.7,0.9-0.4,1.4c0.3,0.5,0.1,1.1-0.4,1.4
			c-0.5,0.3-1.1,0.1-1.4-0.4c-0.8-1.5-0.2-3.3,1.3-4.1s3.3-0.2,4.1,1.3C10.9,11.5,10.7,12.1,10.2,12.3z"/>
		<path d="M16.6,13.8c0.8,1.5,0.2,3.3-1.3,4.1c-1.5,0.8-3.3,0.2-4.1-1.3S15.9,12.3,16.6,13.8z"/>
	</g>
</g>
</svg>
