<?xml version="1.0" encoding="utf-8"?>
<!-- Generator: Adobe Illustrator 21.1.0, SVG Export Plug-In . SVG Version: 6.00 Build 0)  -->
<svg version="1.1" id="Layer_1" xmlns="http://www.w3.org/2000/svg" xmlns:xlink="http://www.w3.org/1999/xlink" x="0px" y="0px"
	 viewBox="0 0 24 24" style="enable-background:new 0 0 24 24;" xml:space="preserve">
<g>
	<path d="M23.7,12.7c-0.1,0-1.3,0.3-2.9,0.3c-2.9,0-5.3-0.9-7.1-2.6c-0.6-0.5-3.5-3.5-2.5-10L11.2,0C5,0.4,0,5.6,0,12
		c0,6.6,5.4,12,12,12c6.4,0,11.6-5,12-11.4L23.7,12.7z M10.2,12.3c-0.5,0.3-1.1,0.1-1.4-0.4c-0.3-0.5-0.9-0.7-1.4-0.4
		s-0.7,0.9-0.4,1.4c0.3,0.5,0.1,1.1-0.4,1.4c-0.5,0.3-1.1,0.1-1.4-0.4c-0.8-1.5-0.2-3.3,1.3-4.1s3.3-0.2,4.1,1.3
		C10.9,11.5,10.7,12.1,10.2,12.3z M15.4,17.8c-1.5,0.8-3.3,0.2-4.1-1.3c-0.8-1.5,4.5-4.3,5.3-2.8S16.8,17,15.4,17.8z"/>
	<path d="M15,9c3.1,3,8.2,1.8,8.2,1.8s-8.6-8.6-10-10C12.2,6.6,15,9,15,9z"/>
</g>
</svg>
