<svg xmlns="http://www.w3.org/2000/svg" viewBox="0 0 64 64"><defs><style>.cls-1{fill:#d33333;}.cls-2{fill:#000333;}.cls-3{fill:none;stroke:#000333;stroke-linecap:round;stroke-linejoin:round;stroke-width:3px;}</style></defs><title>angry</title><g id="Layer_2" data-name="Layer 2"><g id="Layer_1-2" data-name="Layer 1"><circle class="cls-1" cx="32" cy="32" r="32"/><path class="cls-2" d="M38.53,50.33a1.47,1.47,0,0,1-1-.4,8.07,8.07,0,0,0-5.22-2.08,7.92,7.92,0,0,0-5.81,2.07,1.47,1.47,0,1,1-2-2.13,11.3,11.3,0,0,1,15.08,0,1.47,1.47,0,0,1-1,2.55Z"/><path class="cls-3" d="M12.15,30.24s4.4,3.59,15.36,3.48"/><path class="cls-2" d="M22.1,34.51a2.92,2.92,0,0,1,.72,1.92,3,3,0,1,1-6,0,2.94,2.94,0,0,1,1.52-2.58l1.27.26Z"/><path class="cls-3" d="M51,30.24s-4.4,3.59-15.36,3.48"/><path class="cls-2" d="M44.81,33.85a2.94,2.94,0,0,1,1.52,2.58,3,3,0,1,1-6,0,2.92,2.92,0,0,1,.72-1.92Z"/></g></g></svg>