<svg xmlns="http://www.w3.org/2000/svg" viewBox="0 0 64 64"><defs><style>.cls-1{fill:#ffbc33;}.cls-2{fill:#fff;}.cls-3{fill:#a81004;}.cls-4{fill:#f95428;}.cls-5{fill:#000333;}</style></defs><title>haha</title><g id="Layer_2" data-name="Layer 2"><g id="Layer_1-2" data-name="Layer 1"><circle class="cls-1" cx="32" cy="32" r="32"/><path class="cls-2" d="M14.58,35.58H49.42a17.41,17.41,0,0,1-.92,5.59h-33A17.41,17.41,0,0,1,14.58,35.58Z"/><path class="cls-3" d="M15.49,41.17h33a17.45,17.45,0,0,1-6.3,8.53,7,7,0,0,0-10.2-2,7,7,0,0,0-10.2,2A17.45,17.45,0,0,1,15.49,41.17Z"/><path class="cls-4" d="M36.18,46.27a7,7,0,0,1,6,3.43,17.42,17.42,0,0,1-20.41,0,7,7,0,0,1,10.2-2A7,7,0,0,1,36.18,46.27Z"/><path class="cls-5" d="M25.13,25.91a1.28,1.28,0,0,0-.51-1.33L17,19.23a1.28,1.28,0,0,0-1.47,2.1l5,3.54L10,26.62a1.28,1.28,0,0,0,.21,2.55l.21,0,13.67-2.26A1.28,1.28,0,0,0,25.13,25.91Z"/><path class="cls-5" d="M54,26.62,43.41,24.87l5-3.54A1.28,1.28,0,0,0,47,19.23l-7.6,5.35a1.28,1.28,0,0,0,.53,2.31l13.67,2.26.21,0A1.28,1.28,0,0,0,54,26.62Z"/></g></g></svg>