<svg xmlns="http://www.w3.org/2000/svg" viewBox="0 0 64 64"><defs><style>.cls-1{fill:#008edd;}.cls-2{fill:#fff;}</style></defs><title>like</title><g id="Layer_2" data-name="Layer 2"><g id="Layer_1-2" data-name="Layer 1"><circle class="cls-1" cx="32" cy="32" r="32"/><path class="cls-2" d="M44.52,28.53c-1.07-.27-2.8-.8-4.13-1.07,2.13-2.93,3.33-6.66,2.13-9.33A3.65,3.65,0,0,0,39.19,16c-2.93,0-3.73,2.53-4.4,4.53-.53,1.47-2.8,4-6,5.6a34,34,0,0,0-5.06,3.47,1.45,1.45,0,0,0-.53,1.2V44.4a1.84,1.84,0,0,0,.67,1.2c1.87,1.07,8.66,2.4,12.93,2.4a9.16,9.16,0,0,0,3.2-.67c1.73-.93,4-6.66,5.46-10.4A5.1,5.1,0,0,0,48,32.13,4.76,4.76,0,0,0,44.52,28.53Z"/><path class="cls-2" d="M20.26,45.59,17.6,46.66A1.41,1.41,0,0,1,16,45.33V30.67a1.33,1.33,0,0,1,1.6-1.33l2.67.93a1.44,1.44,0,0,1,1.07,1.33V44.13A1.35,1.35,0,0,1,20.26,45.59Z"/></g></g></svg>