<svg xmlns="http://www.w3.org/2000/svg" viewBox="0 0 64 64"><defs><style>.cls-1{fill:#ff0339;}.cls-2{fill:#fff;}</style></defs><title>love</title><g id="Layer_2" data-name="Layer 2"><g id="Layer_1-2" data-name="Layer 1"><circle class="cls-1" cx="32" cy="32" r="32"/><path class="cls-2" d="M39,18a8.62,8.62,0,0,0-7,3.6A8.62,8.62,0,0,0,25,18a8.53,8.53,0,0,0-4.31,1.2A10.12,10.12,0,0,0,16,27.9a10.37,10.37,0,0,0,.42,3c1.67,6.9,13.22,15.6,15.3,17,.14,0,.14.15.28.15s.14,0,.28-.15c1.95-1.35,13.5-10,15.3-16.95a10.49,10.49,0,0,0-4.31-11.7A8.53,8.53,0,0,0,39,18Z"/></g></g></svg>