<svg xmlns="http://www.w3.org/2000/svg" viewBox="0 0 64 64"><defs><style>.cls-1{fill:#ffbc33;}.cls-2{fill:#000333;}.cls-3{fill:#03a9f4;}</style></defs><title>cry</title><g id="Layer_2" data-name="Layer 2"><g id="Layer_1-2" data-name="Layer 1"><circle class="cls-1" cx="32" cy="32" r="32"/><ellipse class="cls-2" cx="19.92" cy="31.91" rx="3.23" ry="4.59"/><ellipse class="cls-2" cx="46.13" cy="31.91" rx="3.23" ry="4.59"/><path class="cls-2" d="M42.43,49.29c.82.17,1.38-1.05.84-1.85A12.46,12.46,0,0,0,33,41.67a12.45,12.45,0,0,0-10.25,5.77c-.54.8,0,2,.84,1.85a47.42,47.42,0,0,1,9.41-.9A47.41,47.41,0,0,1,42.43,49.29Z"/><path class="cls-2" d="M52,23.71h-.16A11.78,11.78,0,0,1,44,18.59a1,1,0,0,1,1.75-1.07,9.86,9.86,0,0,0,6.35,4.15,1,1,0,0,1-.16,2Z"/><path class="cls-2" d="M14.07,23.71a1,1,0,0,1-.16-2,9.77,9.77,0,0,0,6.35-4.15A1,1,0,1,1,22,18.59a11.78,11.78,0,0,1-7.79,5.11Z"/><path class="cls-3" d="M19.92,46.51a4.46,4.46,0,1,1-8.92,0c0-1.88,2.61-6.35,3.83-8.35a.73.73,0,0,1,1.25,0C17.31,40.16,19.92,44.63,19.92,46.51Z"/></g></g></svg>