<svg xmlns="http://www.w3.org/2000/svg" viewBox="0 0 64 64"><defs><style>.cls-1{fill:#ffbc33;}.cls-2{fill:#a81004;}.cls-3{fill:#f95428;}.cls-4{fill:#000333;}.cls-5{fill:none;stroke:#000;stroke-linecap:round;stroke-miterlimit:10;stroke-width:2px;}</style></defs><title>wow</title><g id="Layer_2" data-name="Layer 2"><g id="Layer_1-2" data-name="Layer 1"><circle class="cls-1" cx="32" cy="32" r="32"/><path class="cls-2" d="M37.21,38.51C35.93,36.36,34.07,35,32,35s-3.93,1.36-5.21,3.51a13.76,13.76,0,0,0-1.79,7,12.82,12.82,0,0,0,2.78,8.36,6.13,6.13,0,0,1,8.44,0A12.82,12.82,0,0,0,39,45.5,13.76,13.76,0,0,0,37.21,38.51Z"/><path class="cls-3" d="M36.22,53.86a6.13,6.13,0,0,0-8.44,0A5.67,5.67,0,0,0,32,56,5.67,5.67,0,0,0,36.22,53.86Z"/><ellipse class="cls-4" cx="45" cy="26" rx="3" ry="6"/><ellipse class="cls-4" cx="19" cy="26" rx="3" ry="6"/><path class="cls-5" d="M41.79,14.21s1.55-2.75,4.5-2.18,3.35,3.71,3.35,3.71"/><path class="cls-5" d="M14.26,15.57s.55-3.11,3.52-3.55,4.4,2.38,4.4,2.38"/></g></g></svg>