<?xml version="1.0" encoding="utf-8"?>
<!-- Generator: Adobe Illustrator 21.1.0, SVG Export Plug-In . SVG Version: 6.00 Build 0)  -->
<svg version="1.1" id="Layer_1" xmlns="http://www.w3.org/2000/svg" xmlns:xlink="http://www.w3.org/1999/xlink" x="0px" y="0px"
	 viewBox="0 0 24 24" style="enable-background:new 0 0 24 24;fill:#a2a2a2;" xml:space="preserve">
<g>
	<path d="M6,14H1c-0.6,0-1-0.4-1-1V1c0-0.6,0.4-1,1-1h5c0.6,0,1,0.4,1,1v12C7,13.6,6.6,14,6,14z"/>
</g>
<g>
	<path d="M6,24H1c-0.6,0-1-0.4-1-1v-6c0-0.6,0.4-1,1-1h5c0.6,0,1,0.4,1,1v6C7,23.6,6.6,24,6,24z"/>
</g>
<g>
	<path d="M14.5,9h-5c-0.6,0-1-0.4-1-1V1c0-0.6,0.4-1,1-1h5c0.6,0,1,0.4,1,1v7C15.5,8.6,15.1,9,14.5,9z"/>
</g>
<g>
	<path d="M14.5,24h-5c-0.6,0-1-0.4-1-1V12c0-0.6,0.4-1,1-1h5c0.6,0,1,0.4,1,1v11C15.5,23.6,15.1,24,14.5,24z"/>
</g>
<g>
	<path d="M23,15h-5c-0.6,0-1-0.4-1-1V1c0-0.6,0.4-1,1-1h5c0.6,0,1,0.4,1,1v13C24,14.6,23.6,15,23,15z"/>
</g>
<g>
	<path d="M23,24h-5c-0.6,0-1-0.4-1-1v-5c0-0.6,0.4-1,1-1h5c0.6,0,1,0.4,1,1v5C24,23.6,23.6,24,23,24z"/>
</g>
</svg>
