<?xml version="1.0" encoding="utf-8"?>
<!-- Generator: Adobe Illustrator 21.1.0, SVG Export Plug-In . SVG Version: 6.00 Build 0)  -->
<svg version="1.1" id="Layer_1" xmlns="http://www.w3.org/2000/svg" xmlns:xlink="http://www.w3.org/1999/xlink" x="0px" y="0px"
	 viewBox="0 0 24 24" style="enable-background:new 0 0 24 24;fill:#555;" xml:space="preserve">
<g>
	<path d="M5,7H1C0.4,7,0,6.6,0,6V2c0-0.6,0.4-1,1-1h4c0.6,0,1,0.4,1,1v4C6,6.6,5.6,7,5,7z"/>
</g>
<g>
	<path d="M23,7H9C8.4,7,8,6.6,8,6V2c0-0.6,0.4-1,1-1h14c0.6,0,1,0.4,1,1v4C24,6.6,23.6,7,23,7z"/>
</g>
<g>
	<path d="M5,15H1c-0.6,0-1-0.4-1-1v-4c0-0.6,0.4-1,1-1h4c0.6,0,1,0.4,1,1v4C6,14.6,5.6,15,5,15z"/>
</g>
<g>
	<path d="M23,15H9c-0.6,0-1-0.4-1-1v-4c0-0.6,0.4-1,1-1h14c0.6,0,1,0.4,1,1v4C24,14.6,23.6,15,23,15z"/>
</g>
<g>
	<path d="M5,23H1c-0.6,0-1-0.4-1-1v-4c0-0.6,0.4-1,1-1h4c0.6,0,1,0.4,1,1v4C6,22.6,5.6,23,5,23z"/>
</g>
<g>
	<path d="M23,23H9c-0.6,0-1-0.4-1-1v-4c0-0.6,0.4-1,1-1h14c0.6,0,1,0.4,1,1v4C24,22.6,23.6,23,23,23z"/>
</g>
</svg>
